# xmcd
#
# Track frame offsets:
#	150
#	13220
#	32278
#	47185
#	64537
#	79847
#	98438
#	117058
#	134223
#	150213
#	163283
#	182341
#	197248
#	214600
#	229910
#	248501
#	267121
#	284286
#
# Disc length: 4003 seconds
#
# Revision: 1
# Processed by: cddbd v1.5.2PL0 Copyright (c) Steve Scherf et al.
# Submitted via: audiograbber 1.83.01
#
DISCID=ea0fa112
DTITLE=Various Artist - NorthStar Country vol 3069
DYEAR=1900
DGENRE=Karaoke
TTITLE0=Toby Keith - Big Blue Note
TTITLE1=Faith Hill - Like We Never Loved At All
TTITLE2=George Strait - She Let Herself Go
TTITLE3=Reba McEntire - You're Gonna Be
TTITLE4=Alan Jackson - USA Today
TTITLE5=Shania Twain - Shoes
TTITLE6=Sugarland - Just Might
TTITLE7=Shooter Jennings - 4th of July
TTITLE8=Big and Rich - Comin to Your City
TTITLE9=Toby Keith - Big Blue Note (vocal)
TTITLE10=Faith Hill - Like We Never Loved At All (vocal)
TTITLE11=George Strait - She Let Herself Go (vocal)
TTITLE12=Reba McEntire - You're Gonna Be (vocal)
TTITLE13=Alan Jackson - USA Today (vocal)
TTITLE14=Shania Twain - Shoes (vocal)
TTITLE15=Sugarland - Just Might (vocal)
TTITLE16=Shooter Jennings - 4th of July (vocal)
TTITLE17=Big and Rich - Comin To Your City (vocal)
EXTD=
EXTT0=
EXTT1=
EXTT2=
EXTT3=
EXTT4=
EXTT5=
EXTT6=
EXTT7=
EXTT8=
EXTT9=
EXTT10=
EXTT11=
EXTT12=
EXTT13=
EXTT14=
EXTT15=
EXTT16=
EXTT17=
PLAYORDER=
